<svg width="310" height="723" viewBox="0 0 310 723" fill="none" xmlns="http://www.w3.org/2000/svg">
<path d="M279 18.6833L260.842 2.52885C259.011 0.899903 256.646 0 254.195 0H52.4642C49.9178 0 47.4673 0.971418 45.6125 2.71612L3.14835 42.6605C1.13928 44.5503 0 47.1861 0 49.9443V671.687C0 674.483 1.17105 677.152 3.229 679.046L25.5 699.537L48.6455 720.424C50.4829 722.082 52.87 723 55.345 723H256.513C259.073 723 261.535 722.018 263.393 720.257L306.88 679.032C308.872 677.144 310 674.52 310 671.775V50.1803C310 47.2847 308.745 44.5313 306.559 42.6321L279 18.6833Z" fill="url(#paint0_linear_92_601)"/>
<path d="M278.344 19.4381L278.344 19.4382L278.335 19.4304L260.178 3.27596C258.53 1.80991 256.401 1 254.195 1H52.4642C50.1724 1 47.967 1.87428 46.2977 3.44451L3.8335 43.3889C2.02536 45.0897 1 47.4619 1 49.9443V671.687C1 674.204 2.05396 676.605 3.9061 678.31L26.17 698.795L26.1771 698.801L49.3154 719.682C50.9691 721.174 53.1175 722 55.345 722H256.513C258.817 722 261.033 721.117 262.705 719.532L306.192 678.307C307.985 676.607 309 674.245 309 671.775V50.1803C309 47.5743 307.87 45.0962 305.903 43.3869L278.344 19.4381Z" stroke="white" stroke-opacity="0.54" stroke-width="2"/>
<defs>
<linearGradient id="paint0_linear_92_601" x1="235" y1="-15" x2="77.5" y2="723" gradientUnits="userSpaceOnUse">
<stop stop-color="#A716FF"/>
<stop offset="1" stop-color="#3E30DB"/>
</linearGradient>
</defs>
</svg>
