<svg width="345" height="812" viewBox="0 0 345 812" fill="none" xmlns="http://www.w3.org/2000/svg">
<path d="M0.5 57.5038C0.5 54.8882 1.57842 52.3883 3.48104 50.5934L53.837 3.08964C55.6001 1.42643 57.9322 0.5 60.356 0.5H287.034C289.468 0.5 291.809 1.43426 293.574 3.11002L341.54 48.6434C343.43 50.4371 344.5 52.928 344.5 55.5333V756.442C344.5 759.061 343.419 761.564 341.512 763.359L315.646 787.709L315.628 787.725L290.541 809.215C288.82 810.689 286.627 811.5 284.361 811.5H59.1017C56.655 811.5 54.3026 810.556 52.5346 808.865L3.43285 761.89C1.55952 760.098 0.5 757.618 0.5 755.026V57.5038Z" fill="url(#paint0_linear_91_1775)" stroke="white"/>
<defs>
<linearGradient id="paint0_linear_91_1775" x1="172" y1="-12" x2="172" y2="830.5" gradientUnits="userSpaceOnUse">
<stop offset="0.025145" stop-color="#0047FF"/>
<stop offset="0.09375" stop-color="#034AFC"/>
<stop offset="1" stop-color="#316ADA"/>
</linearGradient>
</defs>
</svg>
